<svg xmlns="http://www.w3.org/2000/svg" viewBox="0 0 697.63 766.01"><defs><style>.cls-1,.cls-4{fill:#fff;}.cls-2,.cls-5{fill:#eba900;}.cls-3{fill:#231f20;}.cls-4,.cls-5{stroke:#000;stroke-miterlimit:10;}.cls-4{stroke-width:8px;}.cls-5{stroke-width:4px;}</style></defs><g id="base"><path class="cls-1" d="M427.85,245.58c4.79,0,12.55-3.93,15.71-7.43s4.44-7,3.76-10.42-4.95-4.7-7.51-4.7a26.44,26.44,0,0,0-10.76,3.08c-3.81,2-10.67,6.83-10.67,12.12S423.08,245.58,427.85,245.58Z" transform="translate(-135.44 -74.99)"/><path class="cls-1" d="M582.31,332.49c1-2.39,8.19-11.27,10.92-15.37s18.45-23.56,23.23-28,16.39-17.08,21.85-21.86c1-4.09.54-7.05,3.08-14.33A190.5,190.5,0,0,0,651,180.86C650.07,167.19,643.1,160,640,160s-12.3,6.49-24.59,18.79-30.74,39.94-34.83,48.48S569,251.55,567.28,255a32.67,32.67,0,0,0-3.08,11.27c15.37,24.59,16.06,56.33,16.06,68.64C580.26,336.59,581.28,334.88,582.31,332.49Z" transform="translate(-135.44 -74.99)"/><path class="cls-1" d="M733.94,319.51c3.75-2.39,25.27-19.12,36.2-29.37s28-29.36,37.22-44,14.34-31.76,14.34-41.32c0-9.23-10.58-12.64-18.44-12.64s-18.44,1-55.32,15-67.28,34.49-90.16,51.57c-17.25,12.86-35.52,32.78-44.74,42.34s-25.27,33.47-31.42,44.05a77.39,77.39,0,0,0-8.54,20.49c-1,3.42-.3,3.48,1.71,3.08,3.42-.68,9.22-1,13.32-1.7s6.15.68,9.22,1.36,4.22,1.13,7.17-2.39a99,99,0,0,1,27.67-22.89c6.48-3.75,9.22-4.09,25.27-.33s42.69,16.73,50.54,21.17,17.42,12.64,19.81,14.35,1.37,2.73,5.46.68,27-15.71,36.54-27.33c6.44-7.83,19.13-23.22,19.13-31.41s-5.12-11.95-13.66-11.95-22.2,5.46-28.69,8.54-10.24,6.83-14,6.83S730.18,321.9,733.94,319.51Z" transform="translate(-135.44 -74.99)"/><path class="cls-1" d="M295.78,565.4c-2.74-3.07-6.49-9.56-5.81-12.63s.34-4.1-3.07-4.78-10.93-2.74-17.08.68-18.44,10.93-18.44,28.69c0,12.63,10.93,32.78,32.1,38.24a37.57,37.57,0,0,1-2.39-14c0-4.1,2.39-11.27,6.83-14.34s8.54-5.81,10.59-6.15,1.36-1.71,1-3.75S298.51,568.47,295.78,565.4Z" transform="translate(-135.44 -74.99)"/><path class="cls-1" d="M685.1,359.47c-2.24-1-2.39-2.05-4.44-.34s-8.19,9.22-11.61,16.39-5.13,15.37-5.13,20.49,3.42,14.69,5.81,18.44c2.39,1.37,7.17,1.37,10.25,1.71s21.17,1.71,23.9,3.42,2.74,1.36,3.42-1,1.7-10.24,6.49-16.05,11.61-12.29,18.1-12.64c-5.81-5.8-14-13.31-20.15-17.41S689.54,361.52,685.1,359.47Z" transform="translate(-135.44 -74.99)"/><path class="cls-1" d="M417.53,401.47c-.42-.81-.52-1.36-1.37-.51s-13,10.08-14.86,12-3.41,4.11-4.61,5.47-1.36,2.22,1.2.85,11.78-4.94,15-6.49,6.49-3.24,7.18-3.58a1,1,0,0,0,.34-1.7C419.91,406.77,417.87,402.16,417.53,401.47Z" transform="translate(-135.44 -74.99)"/><path class="cls-1" d="M456.46,374.5a9,9,0,0,0-2-2.91c-.52-.33-.86-1-1.71,0s-9.73,7.69-11.44,8.89-15.2,12.29-16.39,13.14-2.91,2.22-3.76,2.73-.68,1-.34,1.88,1.88,5.47,2.05,6.49,0,3.25,2.05,2.4,15-6.84,18.27-8.2,14.34-6.49,15.71-7.35,2.22-1.19,1.71-2.9S457.14,375.86,456.46,374.5Z" transform="translate(-135.44 -74.99)"/><path class="cls-1" d="M495.73,346c-.86-1.36-1.19-1.2-1.88-1.71s-.68-.85-1.54,0-8.7,5.47-10.41,6.83-9.22,7-10.08,7.69-3.5,1.47-4.94,2.56c-3.42,2.56-7,5.29-8,6s-1.37.68-1.37,1.53,1,2.22,1.54,3.42,3.92,9,4.27,11.61.85,4.26,1.54,4.44,2-.5,3.58-1.2c9-3.92,28.86-15.37,33.13-18.61a3.85,3.85,0,0,0,1.7-3.25c.17-1.19.35-2.73-1.53-6.65S496.58,347.34,495.73,346Z" transform="translate(-135.44 -74.99)"/><path class="cls-1" d="M524.93,318.83c-1.88-1.54-1.36-1-2.22-.17s-6.32,8-7.68,9.56-11.95,8.88-13.49,10.25a19.64,19.64,0,0,1-4.27,2.56s-.86.68-.35,1.37c.66.87,6.49,12.63,7.18,14.51s1.88,6.32,2.56,6.83,1.36.51,2.9-.68,10.42-8.54,13-13.84,6.31-10.07,5.63-17.41S526.8,320.37,524.93,318.83Z" transform="translate(-135.44 -74.99)"/><path class="cls-2" d="M540,385.43c20.26-13.67,25.73-12.76,26.64-16.86s4.78-16.61,5.92-26.86,0-48.72-13.89-66-31.42-34.15-64.21-36.19c-5-.32-2.28,0-1.82,1.59a89.18,89.18,0,0,1,5.69,31c0,17.08-7.28,48.72-27.78,66.26s-50.78,41.43-96.07,40.3c-36.43-.92-53.05-36.66-53.28-69.44-.15-22.09,15.68-49.44,23.91-56.92,2.5-2.28,5.69-7.52,7.51-8.88s-2.05-.92-5.23.68c-21.86,8.89-65.58,30-90.17,56.69s-66.93,85.38-66.93,151.63c0,30.06,5.23,41.07,9.9,49.86a3.44,3.44,0,0,1,.38,2.15l3.23,1.23c-3.31-8.19-6-21.12-6-42.76,0-33.93,8.66-62.59,17.76-81.74,15.26-32.1,18.22-33.92,29.14-49s18.11-21.06,22.09-25.27c7.74-8.2,26.56-20.95,32.1-24.81,2.28-1.6,2.73-2.28,3.41-1.38s.46.92-1.36,2.51-6.61,5.69-9.11,8-5.1,2.67-10,6.83c-14.8,12.52-23.68,25.27-35.06,40.3S220.3,379.5,214.84,398s-8.65,41.21-8.88,61,3.19,42.34,9.33,47.81S236,511.33,244,508.14s28.58-11.13,44.17-19.35c20.72-10.93,42.12-23.68,64.66-41.9s43.71-37.1,54.64-46.66,28.13-21.59,35.06-26.87c9.56-7.29,14.8-11.84,26.87-20S485.09,342.4,491,339.21s19.8-12.3,23.44-16.39a36.16,36.16,0,0,0,6.61-9.79c.91-2.28,1.82-2.51,3.19-1.37S532,315.3,532,328.74s-3.82,20.76-12.3,29.82c-10,10.7-32.4,23.08-46.22,30.28-15.71,8.2-24.36,12.75-35.06,17.53s-26.86,11.38-32.32,14.57S399,423,394,425s-11.61,4.78-17.76,9.56-44.17,36.2-60.79,46.22C305,487.11,297,492.89,294.53,494.25s-2,.92.22,2.05,11.16,3.65,18.9,3.87,28.23-4.32,37.79-6.14,34.61-8.43,46.9-13.44,62.16-30.5,78.55-41.89S519.69,399.08,540,385.43Z" transform="translate(-135.44 -74.99)"/><path class="cls-2" d="M297.14,541.84c6.15-4.44,21.52-9.56,35.52-9.56s22.2,1.7,23.91,2.38,1,1.37,3.41-1,6.49-7.17,7.17-9.57,1.37-4.09-1-4.78-16.39-6.14-20.83-9.21-8.89-6.49-10.59-6.49-14,2.39-17.42,2.39c-2.73,0-6.14-1.37-7.17,1.71s-3.07,9.22-6.83,12.63S278,537.4,273.58,540.82s-5.81,4.78-1,2.72,9.91-4.09,16.05-4.09S296.46,540.47,297.14,541.84Z" transform="translate(-135.44 -74.99)"/><path class="cls-2" d="M336.07,583.5c-3.07-.68-2.38-2,0-2.39s9.23.34,12.64,2.39c3.07-5.12,2.39-12,.68-15.36s-4.44-8.54-10.24-10.25-7.17-1.37-6.83-2.74,1-1,3.07-.68,6.83.68,8.2,1.37,8.53,4.44,11.61,6.49c3.07,0,4.1-2.73,5.8-5.47s3.76-7.51,2.4-10.25-4.45-6.14-7.86-7.16a44.92,44.92,0,0,0-17.76-2.05c-8.54.68-25.95,3.07-32.1,6.14s-9.22,3.42-9.56,8.2c-.22,3.07,2,9,6.49,12.64,1.7,1.36,3.41,11.27,3.41,16.73s-1.71,16.39-3.07,20.15-3.76,4.44-4.1,1,1-8.19,1.71-11.95-1-4.78-2.4-3.41-4.43,1.36-6.83,4.1-6.48,8.87-5.46,15.36,4.1,8.88,7.51,10.93,7.52,2.73,14,2.73,18.1-3.76,20.14-5.46a46.89,46.89,0,0,0,5.81-5.81c1.71-2,2.73-.68,4.44-1s3.41-.69,4.44-1.71c1.71.68,3.76,1,2,2.05s-5.46,2.73-7.17,2.73c.68,3.07,4.09,4.78,6.49,4.78s8.53-3.42,9.22-8.19.34-14-5.12-18.44S339.15,584.19,336.07,583.5Z" transform="translate(-135.44 -74.99)"/><path class="cls-2" d="M363.4,567.1c-1-1.36-1.37-2-3.08-.67s-2.73,1.36-2.73,4.1a29.54,29.54,0,0,1-2.39,10.58c-1.37,2.73,0,4.79,2.73,4.79s8.54-1,10.25-2.74,3.41-6.15,1-8.88S364.42,568.47,363.4,567.1Z" transform="translate(-135.44 -74.99)"/><path class="cls-2" d="M535.63,760.86c-2-.69-8.41-2.58-14.34-5-8.88-3.64-21.18-13-23.46-15.25-1.83-1.84-2.73-4.33-4.09-1.37s-1.83,8-3,12.07-7.06,20-10.93,26.18-23,34.15-27.32,38-4.33,5.23-6.38,7.06-2.72,3,1.15,1.14a261.66,261.66,0,0,0,25.27-14.12c8.64-5.69,43.48-29.14,51.68-36s9.79-8.88,11.61-10S537.68,761.54,535.63,760.86Z" transform="translate(-135.44 -74.99)"/><path class="cls-2" d="M681.68,597.16c-2.73,4.1-22.54,31.76-42,41.32S599,650.61,589.82,650.43c-36.88-.67-69-14-80.94-28.34s-12.3-16.74-13.32-18.44-.34-3.07-2.73-.34S481.56,617,481.56,628.92c0,18.1,6.83,32.44,20.49,44.74s35.52,27,58.4,31.42,34.49,4.09,47.13,2.39,28-4.78,49.18-25.61c13.25-13.05,30.77-37.92,30-65.23-.35-13-1.71-15.37-2.39-18.44S683.73,594.09,681.68,597.16Z" transform="translate(-135.44 -74.99)"/><path class="cls-2" d="M587.77,536.37c-16.88,15.6-41,17.76-51.91,17.76s-20.49-4.78-28-7.17c-.34,2-3.75,1.71,1,15s28,28.68,55,28.68,53.62-13,67.62-26.64,20.15-41.32,21.86-59.07a56.88,56.88,0,0,0-10.59-39.28c-5.8-7.86-12.13-15.35-17.93-15.11-2.05.08-1.81.61-1.45,2.22.65,2.91.26,4,.94,14.6C625.1,479.67,619.19,507.35,587.77,536.37Z" transform="translate(-135.44 -74.99)"/><path class="cls-2" d="M548.16,420.26c0,14.34,7.85,26,10.92,28s6.15,6.5,9.91,7.86,10.58,4.44,16.39,4.09,12.64-5.8,15.37-8.87,6.15-13.32,5.8-15.71a15.08,15.08,0,0,0,7.86,2.05c2.39,0,13.66-3.08,17.41-4.79s6.67-6.92,9.23-10.92c2.38-3.76,3.07-8.54,3.41-9.91s0-1.71-1-3.42-4.43-4.78-4.78-8.87S638,382,638,375.86s1.37-8.87,3.08-11.27,1.7-3.07,4.43-4.1,2.4-1.36,1,1-4.1,11.61-3.76,19.8,0,19.82,5.47,24.94,7.51,5.46,9.9,6.83c.34-4.1-2-5.12-1.36-14.69s1.36-14.68,4.78-21.51,7.51-14,10.93-16.74,5.12-4.78,2.73-5.46-9.91-4.1-14.35-5.12-17.07-3.76-20.83-3.42-13.22,5.92-17.08,9.22c-7.17,6.15-17.07,18.78-18.44,20.49s-2.39,2.74-4.78,3.08-13.32-.68-20.15,1.36a53.72,53.72,0,0,0-20.83,12.63C552.94,398.74,548.16,409.67,548.16,420.26Z" transform="translate(-135.44 -74.99)"/><path class="cls-2" d="M780.38,437.33c0-5.8-7.17-16.05-11.27-20.48s-18.78-12-27.32-13.67c-2-4.1-1.37-7.51-7.85-7.85-3.07-.16-7.18,1.71-12,6.14s-8.19,9.57-8.88,17.76S706.27,436,702.52,438.7s-12.3,4.44-12.3,13.66,20.83,13.66,24.25,15,2.73-.34,1-2.05a82.46,82.46,0,0,1-8.2-10.93c-1-2.05-.68-2.39,1-.68s12,11.95,19.13,15.71,14.68,8.88,8.88,8.19-8.54-1.71-10.25-2.73c4.78,7.17,12.29,20.15,25.95,20.15s12.3-15,12.3-18.1-.34-4.78-2.73-2.74-4.78,1.37-4.78-.33,2.39-1.37,4.78-3.76,8.19-9.56,9.22-11.61c0-5.47,1-8.88,1-13s1.71-4.1,1.71-.68V452C776.62,448.26,780.38,443.14,780.38,437.33Z" transform="translate(-135.44 -74.99)"/><path class="cls-3" d="M823.41,187.35c-7.34-6.83-33.64-1-54.64,4.44S709,216.55,696.88,223.55,673,238.4,666.48,243s-16.73,12.81-18.1,14-2.73.35-1.19-2,5.12-12.81,8.37-25.28,5.12-30.39,3.93-47.29-3.76-26.47-10.42-33.3c-3.05-3.12-6.15-7-25.44,10.42s-37.91,44.91-44.4,57S564.37,243.19,561.3,257c-1.18,5.31-1.21,4.8-3.42,1.72-4.26-6-17.58-15-31.58-21.86-6.66-3.25-14.52-4.1-20.84-5a76,76,0,0,0-17.24-.52c-2.37.33-4.78-3.41-8.54-7.85a42.21,42.21,0,0,0-13.32-10.08,25.24,25.24,0,0,1-7.51-5.12c-1.2-1.19-3.59-5.12-8.88-11.78S415.48,159.35,399.42,145c-11.89-10.63-37.56-31.25-51.39-40.29-10.62-7-32.79-18.79-45.25-24.77C291.69,74.63,286.21,75,282.46,75s-8.2,1.36-8.2,4.26,3.59,5.29,6.32,6.84,2.56,1.87,3.59,2.38,5,1.87,14.17,6.49c19.34,9.79,37.58,17.25,51.8,26,16.57,10.21,32.23,21.54,44.16,30.33,6.34,4.67,14.75,14.63,23.4,22.54a244.1,244.1,0,0,1,28.17,30.57c1.65,2.23,1.88,1.87,0,2s-5.63-.51-8.54-.51-8.19,1.88-13.66,1.88-24.76,4.44-31.76,8.54-8.71,2.05-12.63.34a38.14,38.14,0,0,0-12.13-2.9c-4.78-.52-7.17-2.22-10.58-5.3S338.12,193.84,329.76,188s-28.35-17.58-36.2-21.86-18.61-9-23.74-11.09-10.24-4.78-15.37-6.49-6.14-3.41-9.73-4.27-19.81-6.83-34.49-11.1-36.2-12-52.76-12-22,5.8-22,7.68,2.56,2.9,3.41,3.76,1,1.88,3.76,2.39,17.42,2.05,53.27,9.56S259.4,162.08,277,170.1c16.76,7.65,29.19,14.86,37.05,19.3s27.57,18.67,28.86,19.64c2,1.53.49,2.2-3.76,2.39-25.69,1.13-41,6.48-62.67,23.22-12.47,9.62-23.73,18.95-34.15,38.93A58.63,58.63,0,0,0,236,300.9a77.1,77.1,0,0,0,1,12.29c.51,1.88.34,2.06-.18,2.56-16.39,22-31.07,44.74-40.8,69.16s-15.37,53.11-13.49,76.5,9.39,36,10.75,38.25,4.78,5.3,5.81,5.3c.67,0,1.24-.06,1.4-.59a3.44,3.44,0,0,0-.38-2.15c-4.67-8.79-9.9-19.8-9.9-49.86,0-66.25,42.34-125,66.93-151.63s68.31-47.8,90.17-56.69c3.18-1.6,7-2,5.23-.68s-5,6.6-7.51,8.88c-8.23,7.48-24.06,34.83-23.91,56.92.23,32.78,16.85,68.52,53.28,69.44,45.29,1.13,75.58-22.78,96.07-40.3s27.78-49.18,27.78-66.26a89.18,89.18,0,0,0-5.69-31c-.46-1.59-3.18-1.91,1.82-1.59,32.79,2,50.32,18.89,64.21,36.19s15,55.79,13.89,66-5,22.77-5.92,26.86-6.38,3.19-26.64,16.86-46.68,41.89-63.07,53.27-66.25,36.88-78.55,41.89S361,492.21,351.44,494s-30.05,6.37-37.79,6.14-16.62-2.73-18.9-3.87-2.73-.68-.22-2.05,10.5-7.14,20.94-13.43c16.62-10,54.64-41.43,60.79-46.22S389,427.09,394,425s6.6-.91,12.07-4.1,21.63-9.79,32.32-14.57,19.35-9.33,35.06-17.53c13.82-7.2,36.2-19.58,46.22-30.28,8.48-9.06,12.3-16.39,12.3-29.82s-6.37-15.94-7.74-17.08-2.28-.91-3.19,1.37a36.16,36.16,0,0,1-6.61,9.79c-3.64,4.09-17.53,13.2-23.44,16.39s-9.56,5.91-21.63,14.11-17.31,12.75-26.87,20c-6.93,5.28-24.13,17.3-35.06,26.87s-32.1,28.45-54.64,46.66-43.94,31-64.66,41.9C272.56,497,252,505,244,508.14s-22.54,4.1-28.69-1.36-9.56-28-9.33-47.81,3.41-42.58,8.88-61,20.49-44.63,31.87-59.65S267,310.52,281.77,298c4.92-4.16,7.52-4.56,10-6.83s7.29-6.38,9.11-8,2.05-1.59,1.36-2.51-1.13-.22-3.41,1.38c-5.54,3.86-24.36,16.61-32.1,24.81-4,4.21-11.16,10.24-22.09,25.27s-13.88,16.85-29.14,49c-9.1,19.15-17.76,47.81-17.76,81.74,0,21.64,2.69,34.57,6,42.76a37.4,37.4,0,0,0,5.84,10c5.24,6.38,10.7,6.38,14.34,6.38s12.53-1.59,21.86-5,25.5-10.7,40.76-18.67c1.36,1.6,6.6,3.42,8.87,4.1s6.61,1.59,8.43,2.73c-3,10-10.64,16.69-17.3,20.72-8.65,5.24-19.36,12.52-24.14,17.3s-15.25,16.16-15.25,35.07,18.44,36.65,25.5,41.43,26.18,10.48,34.15,10.48,18.67-6.38,20.49-7.29,1.37-3.19,4.32-3.19,5.92,1.82,9.56,1.82,9.34-3,12.08-5,5.68-8.88,5.68-12.3a32.16,32.16,0,0,0-2.27-10.93c-1.14-2.51-1.36-1.59,1.14-1.59s12.07-3.64,13.66-5.24,4.32-3.42,4.32-9.33S369,566,367.15,564.61s-2-2.28-.68-3.87a16.33,16.33,0,0,0,3-8.66c0-3-2.5-10.7-6.15-14.34,2.05-1.37,5.92-7.06,7.06-8.65s1.14-3.88,1.6-5.47.67-1.13,2-.91,19.35,5.47,31.87,7.51,39.85,3.88,54.2,4.79,36.42,8.19,41.43,10.47c-.69,1.13-.91,1.82-.91,5.24s1.59,8.42.91,11.38c-5,.91-8.88,13.89-9.34,20.49s1.37,10.93,1.37,14.57c-12.52,6.38-19.81,22.77-19.81,37.57,0,10,2.74,17.3,4.1,19.35s1.82,2,.23,4.78-7.52,10.93-7.52,24.36c0,17.31,5.47,32.79,13.66,41.9,2.51,2.76,2.39,3.63,2.29,6.14-.42,9.53-8.21,31.88-18.68,51.68s-19.58,31-26.41,37.57-15.7,14.8-18.66,15.71-4.1,2-3.88,3-1.13,3.19,6.15.68,46.9-23,54.64-27.32,31.19-19.12,38-23.68c28.91-19.35,37.11-24.81,38.7-25.72a97.21,97.21,0,0,0,15-2.51c9.56-2.28,14.11-5,19.35-6.6s13.21-5.46,22.08-11.38,17-14.69,21.41-19.81,4.09-6,4.43-8,4.1-7.34,5.3-9.39S643.26,703.54,654,695s27.49-27.5,34-51.06c4-14.59,6.14-36.89-1.87-55.32,3.92-10.08,7-28,7-33.64s-1-20.67-5.81-33.47-22.53-31.59-24.07-33.3-2.22-1-2.73-3.24-1.54-3.59-3.59-9.57-4.26-10.75-6.31-12.46-7.69-8.54-9.91-10.42L638.48,450a11.82,11.82,0,0,1-4.44-1.88,20.25,20.25,0,0,0-8.7-2.39c-2.33,0-2.91-.34-3.08-2s.34-1.38,2-1.54,7-2.91,10.07-4.27,2.91-3.25,5.47-5.3c3.41-3.41,6.32-13.14,7-17.08.24-1.35.17-1.7.85-2,0,0,4.44,2.22,10.08,4.44s22,4.1,29.88,4.61,14.18.68,16.91,3.42c-1.37,1.19-.35,4.09-5.3,8.36s-12.81,8.54-12.81,19,9.91,14.69,14.86,16.22,10.08,1.7,11.61,2.9,7.35,3.07,8.88,3.58,1,1,1.37,1.88c3.41,12.13,17.24,23.57,26.29,23.57s12.64-2.73,16-5.81,5.64-10.07,5.64-12.81-1-5.46-1.88-8-1.71-3.59-1.37-5.29a12.16,12.16,0,0,0,3.59-6.66c1-4.61,1.37-4.78,4.1-6.83s9.9-10.59,9.9-19.47-3.75-13.49-11.26-22-20.16-13.66-27.67-15.53c-2.85-.72-1.7-2.57-2.22-3.42s-6.66-7.51-9.22-10.76c0,0,.51-.85,6.49-3.58s26.64-15.2,40.13-29.37c8.74-9.19,16.9-27.15,16.9-38.08s-13-13.15-15.88-13.15-13,2.56-17.93,4.26-2.22-1,.52-3.07,28-23.9,39.1-38.58c7.65-10.14,19.64-24.94,25.95-43.89S830.75,194.18,823.41,187.35Zm-379.85,50.8c-3.16,3.5-10.92,7.43-15.71,7.43s-9.47-2.05-9.47-7.35,6.86-10.08,10.67-12.12A26.44,26.44,0,0,1,439.81,223c2.56,0,6.83,1.29,7.51,4.7S446.72,234.65,443.56,238.15ZM497.27,341a19.64,19.64,0,0,0,4.27-2.56c1.54-1.37,12.12-8.71,13.49-10.25s6.83-8.71,7.68-9.56.34-1.37,2.22.17,2.56,5.64,3.24,13-3.07,12.12-5.63,17.41-11.44,12.64-13,13.84-2.22,1.19-2.9.68-1.88-4.95-2.56-6.83-6.52-13.64-7.18-14.51C496.41,341.71,497.27,341,497.27,341Zm-38.42,26.3c1-.69,4.61-3.42,8-6,1.44-1.09,4.09-1.88,4.94-2.56s8.37-6.32,10.08-7.69,9.56-6,10.41-6.83.86-.51,1.54,0,1,.35,1.88,1.71,4.1,8.71,6,12.64,1.7,5.46,1.53,6.65a3.85,3.85,0,0,1-1.7,3.25c-4.27,3.24-24.08,14.69-33.13,18.61-1.61.7-2.9,1.37-3.58,1.2s-1.2-1.88-1.54-4.44-3.76-10.42-4.27-11.61-1.54-2.56-1.54-3.42S457.9,368,458.85,367.33Zm-37.74,29c.85-.51,2.56-1.87,3.76-2.73s14.68-11.95,16.39-13.14,10.59-7.86,11.44-8.89,1.19-.33,1.71,0a9,9,0,0,1,2,2.91c.68,1.36,3.59,12.46,4.1,14.17s-.35,2.05-1.71,2.9-12.47,6-15.71,7.35-16.22,7.34-18.27,8.2-1.88-1.38-2.05-2.4-1.77-5.78-2.05-6.49S420.26,396.87,421.11,396.35Zm-24.42,22c1.2-1.36,2.73-3.58,4.61-5.47s14-11.1,14.86-12,.95-.3,1.37.51,2.38,5.3,2.9,6a1,1,0,0,1-.34,1.7c-.69.34-3.93,2-7.18,3.58s-12.46,5.13-15,6.49S395.5,419.74,396.69,418.38Zm-145.31,159c0-17.76,12.29-25.28,18.44-28.69s13.66-1.37,17.08-.68,3.74,1.78,3.07,4.78,3.07,9.56,5.81,12.63,3.41,9.91,3.76,12,1,3.41-1,3.75-6.15,3.08-10.59,6.15-6.83,10.24-6.83,14.34a37.57,37.57,0,0,0,2.39,14C262.31,610.14,251.38,590,251.38,577.36Zm117.82-3.08c2.39,2.73.69,7.17-1,8.88s-7.52,2.74-10.25,2.74-4.1-2.06-2.73-4.79a29.54,29.54,0,0,0,2.39-10.58c0-2.74,1-2.74,2.73-4.1s2.05-.69,3.08.67S366.81,571.55,369.2,574.28Zm-5.8-27.67c1.36,2.74-.69,7.52-2.4,10.25s-2.73,5.47-5.8,5.47c-3.08-2.05-10.25-5.81-11.61-6.49s-6.15-1-8.2-1.37-2.73-.68-3.07.68,1,1,6.83,2.74,8.54,6.83,10.24,10.25,2.39,10.24-.68,15.36c-3.41-2-10.25-2.73-12.64-2.39s-3.07,1.71,0,2.39,6.15,1,11.62,5.47,5.8,13.66,5.12,18.44-6.83,8.19-9.22,8.19-5.81-1.71-6.49-4.78c1.71,0,5.46-1.71,7.17-2.73s-.34-1.37-2-2.05c-1,1-2.73,1.37-4.44,1.71s-2.73-1-4.44,1a46.89,46.89,0,0,1-5.81,5.81c-2,1.7-13.66,5.46-20.14,5.46s-10.59-.68-14-2.73-6.48-4.44-7.51-10.93S289,593.75,291.33,591s5.47-2.74,6.83-4.1,3.08-.35,2.4,3.41-2.05,8.54-1.71,11.95,2.73,2.74,4.1-1S306,586.57,306,581.11s-1.71-15.37-3.41-16.73c-4.53-3.62-6.71-9.57-6.49-12.64.34-4.78,3.42-5.13,9.56-8.2s23.56-5.46,32.1-6.14a44.92,44.92,0,0,1,17.76,2.05C359,540.47,362,543.89,363.4,546.61Zm3.75-22.54c-.68,2.4-4.78,7.18-7.17,9.57s-1.71,1.71-3.41,1-9.91-2.38-23.91-2.38-29.37,5.12-35.52,9.56c-.68-1.37-2.39-2.39-8.54-2.39s-11.27,2-16.05,4.09-3.41.69,1-2.72,26-17.08,29.71-20.5,5.81-9.56,6.83-12.63,4.44-1.71,7.17-1.71c3.42,0,15.71-2.39,17.42-2.39s6.15,3.41,10.59,6.49,18.43,8.54,20.83,9.21S367.84,521.69,367.15,524.07ZM564.2,266.24A32.67,32.67,0,0,1,567.28,255c1.71-3.42,9.22-19.12,13.32-27.67s22.54-36.2,34.83-48.48S637,160,640,160s10.05,7.16,10.93,20.83a190.5,190.5,0,0,1-9.56,72.07c-2.54,7.28-2,10.24-3.08,14.33-5.46,4.78-17.07,17.42-21.85,21.86S596,313,593.23,317.12s-9.9,13-10.92,15.37-2,4.1-2,2.39C580.26,322.57,579.57,290.83,564.2,266.24ZM535.86,763.59c-1.82,1.14-3.41,3.19-11.61,10s-43,30.28-51.68,36A261.66,261.66,0,0,1,447.3,823.7c-3.87,1.82-3.2.68-1.15-1.14s2.05-3.19,6.38-7.06,23.45-31.87,27.32-38,9.79-22.08,10.93-26.18,1.59-9.11,3-12.07,2.26-.47,4.09,1.37c2.28,2.27,14.58,11.61,23.46,15.25,5.93,2.43,12.29,4.32,14.34,5S537.68,762.45,535.86,763.59ZM681.68,597.16c2.05-3.07,2.05-2,2.74,1s2,5.46,2.39,18.44c.72,27.31-16.8,52.18-30,65.23-21.18,20.83-36.55,23.9-49.18,25.61s-24.25,2-47.13-2.39-44.74-19.12-58.4-31.42S481.56,647,481.56,628.92c0-11.95,8.88-22.88,11.27-25.61s1.71-1.37,2.73.34,1.36,4.1,13.32,18.44,44.06,27.67,80.94,28.34c9.22.18,30.39-2.38,49.86-11.95S679,601.26,681.68,597.16ZM624.31,467.39c-.68-10.59-.29-11.69-.94-14.6-.36-1.61-.6-2.14,1.45-2.22,5.8-.24,12.13,7.25,17.93,15.11A56.88,56.88,0,0,1,653.34,505c-1.71,17.75-7.86,45.42-21.86,59.07s-40.64,26.64-67.62,26.64-50.2-15.36-55-28.68-1.37-13-1-15c7.52,2.39,17.08,7.17,28,7.17s35-2.16,51.91-17.76C619.19,507.35,625.1,479.67,624.31,467.39Zm33.81-54.3c-2.39-1.37-4.44-1.71-9.9-6.83s-5.12-16.74-5.47-24.94,2.39-17.41,3.76-19.8,1.71-2-1-1-2.73,1.71-4.43,4.1S638,369.72,638,375.86s.34,19.81.68,23.91,3.76,7.17,4.78,8.87,1.37,2.06,1,3.42-1,6.15-3.41,9.91c-2.56,4-5.47,9.22-9.23,10.92s-15,4.79-17.41,4.79a15.08,15.08,0,0,1-7.86-2.05c.35,2.39-3.07,12.63-5.8,15.71s-9.56,8.54-15.37,8.87-12.64-2.73-16.39-4.09-6.84-5.81-9.91-7.86-10.92-13.66-10.92-28c0-10.59,4.78-21.52,10.58-27.33a53.72,53.72,0,0,1,20.83-12.63c6.83-2,17.76-1,20.15-1.36s3.42-1.37,4.78-3.08,11.27-14.34,18.44-20.49c3.86-3.3,13.32-8.88,17.08-9.22s16.39,2.39,20.83,3.42,11.95,4.43,14.35,5.12.68,2.73-2.73,5.46-7.52,9.91-10.93,16.74-4.1,11.95-4.78,21.51S658.46,409,658.12,413.09Zm45.76,6.49c-2.73-1.71-20.83-3.08-23.9-3.42s-7.86-.34-10.25-1.71c-2.39-3.75-5.81-13.31-5.81-18.44s1.72-13.32,5.13-20.49,9.56-14.68,11.61-16.39,2.2-.7,4.44.34c4.44,2,20.49,8.88,26.64,13s14.34,11.61,20.15,17.41c-6.49.35-13.32,6.83-18.1,12.64s-5.81,13.66-6.49,16.05S706.62,421.28,703.88,419.58Zm37.91-16.4c8.54,1.71,23.22,9.22,27.32,13.67s11.27,14.68,11.27,20.48-3.76,10.93-6.83,14.69v-7.17c0-3.42-1.71-3.42-1.71.68s-1,7.51-1,13c-1,2.05-6.83,9.22-9.22,11.61s-4.78,2.05-4.78,3.76,2.39,2.38,4.78.33,2.73-.33,2.73,2.74,1.36,18.1-12.3,18.1-21.17-13-25.95-20.15c1.71,1,4.44,2.05,10.25,2.73s-1.71-4.44-8.88-8.19-17.42-14-19.13-15.71-2.05-1.37-1,.68a82.46,82.46,0,0,0,8.2,10.93c1.7,1.71,2.38,3.41-1,2.05s-24.25-5.81-24.25-15,8.54-10.93,12.3-13.66,9.9-11.27,10.58-19.47,4.1-13.31,8.88-17.76,8.89-6.3,12-6.14C740.42,395.67,739.74,399.08,741.79,403.18Zm65.57-157.09c-9.22,14.69-26.29,33.81-37.22,44s-32.45,27-36.2,29.37-5.13,4.11-1.37,4.11,7.51-3.76,14-6.83,20.15-8.54,28.69-8.54,13.66,3.75,13.66,11.95-12.69,23.58-19.13,31.41c-9.56,11.62-32.44,25.28-36.54,27.33s-3.07,1-5.46-.68-12-9.91-19.81-14.35-34.49-17.42-50.54-21.17-18.79-3.42-25.27.33A99,99,0,0,0,604.5,366c-3,3.52-4.1,3.07-7.17,2.39s-5.12-2.05-9.22-1.36-9.9,1-13.32,1.7c-2,.4-2.73.34-1.71-3.08a77.39,77.39,0,0,1,8.54-20.49c6.15-10.58,22.2-34.49,31.42-44.05s27.49-29.48,44.74-42.34c22.88-17.08,53.27-37.57,90.16-51.57s47.47-15,55.32-15,18.44,3.41,18.44,12.64C821.7,214.33,816.58,231.4,807.36,246.09Z" transform="translate(-135.44 -74.99)"/><path class="cls-3" d="M581.08,781a17.85,17.85,0,1,0,17.85,17.85A17.85,17.85,0,0,0,581.08,781Zm0,31.86a14,14,0,1,1,14-14A14,14,0,0,1,581.08,812.88Z" transform="translate(-135.44 -74.99)"/><path class="cls-3" d="M588.41,794.72a6,6,0,0,0-6-6.05h-8.61v20.39h3.83v-8.29h2.74l3.87,8.29h4.22l-4-8.64A6.05,6.05,0,0,0,588.41,794.72Zm-6,2.22h-4.78v-4.45h4.78a2.23,2.23,0,0,1,0,4.45Z" transform="translate(-135.44 -74.99)"/></g><g id="strap"><path d="M562,255l18,45s-15,10-75.24,4.75c.24.25-7.76.25-7.76.25l4-52Z" transform="translate(-135.44 -74.99)"/></g><g id="goggle_base" data-name="goggle base"><path class="cls-1" d="M401.13,339.53c-30.05,0-64-1.76-100.78-5.23a3.51,3.51,0,0,1-2.49-1.41c-1.18-1.56-2.44-4.46-4.19-8.47-1.53-3.53-3.45-7.92-6.09-13.21-10.32-20.63-14.59-21-16.2-21.19l-.19,0h-7.28c-6.07,0-16.6,15.41-16.7,15.57-4,6.08-11.66,17.39-18,24.79a3.46,3.46,0,0,1-2.64,1.2h-.23c-9.16-.61-22.81-2.44-33.77-3.9-6.86-.92-12.27-1.65-14.92-1.85a3.2,3.2,0,0,1-.85-.17c-2.26-.79-9.62-4.71-9.29-21.72.38-20.08,6.19-67,8-80.87a3.47,3.47,0,0,1,3.35-3.05l302.75,17.77a2.68,2.68,0,0,1,.42,0c2.42.44,14.61,3.36,16.9,17a2.77,2.77,0,0,1,0,.72c-1.67,28.33-3.92,58.68-5.19,65l-.45,1.07c-4.06,9.56-10.94,11.37-11.24,11.45l-.14,0C481.71,333.21,457.78,339.53,401.13,339.53Z" transform="translate(-135.44 -74.99)"/><path d="M179.42,224l302,17.73c2.83.53,11.74,3.06,13.58,13.61-1.88,31.86-3.94,58-5,64.07l-.27.65c-3.05,7.17-7.86,8.91-8.52,9.12l-.22.06c-.23.06-23.88,6.25-79.77,6.25-29.87,0-63.57-1.75-100.19-5.19a59.59,59.59,0,0,1-3.6-7.52c-1.56-3.57-3.49-8-6.18-13.4-1.11-2.21-3.71-7.13-6.42-11.51-4.43-7.16-8-11.4-13-11.87l-.38,0h-7.47c-4,0-7.56,2.36-13.19,8.72a98.83,98.83,0,0,0-6.85,8.65c-3.91,5.94-11.35,16.93-17.48,24.18-9-.62-22.45-2.41-33.25-3.86-6.86-.92-12.29-1.64-15.08-1.86-1.35-.52-6.79-3.52-6.51-17.83.37-19.67,6-65.55,7.87-80m-.42-8h-.18a7.47,7.47,0,0,0-7.28,6.55c-1.7,13.36-7.61,60.91-8,81.29-.37,19.43,8.62,24.4,12,25.58a7.47,7.47,0,0,0,1.88.38c6.65.51,33.71,4.76,48.72,5.75h.5a7.44,7.44,0,0,0,5.68-2.61c6.5-7.62,14.36-19.25,18.26-25.18C252.06,305.47,261,294,263.91,294H271c3.16.3,11,15,13,19,5.78,11.56,8,18.78,10.66,22.3a7.53,7.53,0,0,0,5.31,3c41.43,3.91,74.82,5.25,101.16,5.25C459.21,343.53,483,337,483,337s9-2,14-13.78h0c1.89,0,5.47-59.74,5.92-67.42a7.31,7.31,0,0,0-.07-1.62c-2.74-16.31-17.24-19.77-20.13-20.31a9,9,0,0,0-.91-.1L179,216Z" transform="translate(-135.44 -74.99)"/><path class="cls-4" d="M497,283s-11,6-138,1L171.64,268.9" transform="translate(-135.44 -74.99)"/></g><g id="antenna"><path class="cls-5" d="M392.36,260.8a101.93,101.93,0,0,0-16.07,2.13s-22.6,23.52,6.95,37.83c0,0,27.81.41,33-23.92,1.33-6.21-.62-10.15-4.26-12.58L410.78,181l-10-14-8,93.33h0Z" transform="translate(-135.44 -74.99)"/></g></svg>