<svg id="Layer_1" data-name="Layer 1" xmlns="http://www.w3.org/2000/svg" viewBox="0 0 348.41 189.55"><path d="M223.16,86.89A3.91,3.91,0,0,0,220,85.22H159.05a3.84,3.84,0,0,0-1.46.33,3.86,3.86,0,0,1,1.71,1.34,3.91,3.91,0,0,1,.47,3.57L145.37,130h58.29a3.9,3.9,0,0,1,3.66,5.23l16.31-44.79A3.91,3.91,0,0,0,223.16,86.89Z" transform="translate(-5.79 -85.22)"/><path d="M236.33,223.85a3.88,3.88,0,0,0-3.19-1.66H175.68L191,180a3.9,3.9,0,0,0-3.66-5.23H129.07l14.39-39.56A3.9,3.9,0,0,0,139.8,130H86.16l14.4-39.56a3.91,3.91,0,0,0-3.66-5.24H25.76a3.9,3.9,0,0,0-3.66,2.57L5.79,132.58A3.9,3.9,0,0,1,9.46,130H80.59a3.9,3.9,0,0,1,3.67,5.23l-14.4,39.56H123.5a3.9,3.9,0,0,1,3.66,5.23l-15.34,42.15h57.94a3.91,3.91,0,0,1,3.67,5.23l-16.31,44.79a3.89,3.89,0,0,1-2.33,2.31,3.92,3.92,0,0,0,1.31.26h60.74a3.9,3.9,0,0,0,3.66-2.57l16.3-44.79A3.88,3.88,0,0,0,236.33,223.85Z" transform="translate(-5.79 -85.22)"/><path d="M206.85,131.68a3.88,3.88,0,0,1,.47,3.57l-14.39,39.56h62.83l15.37-42.23A3.91,3.91,0,0,1,274.8,130H203.66A3.88,3.88,0,0,1,206.85,131.68Z" transform="translate(-5.79 -85.22)"/><path d="M334,130h5.56L354,90.46a3.91,3.91,0,0,0-3.66-5.24H291.1a3.9,3.9,0,0,0-3.66,2.57l-16.31,44.79A3.91,3.91,0,0,1,274.8,130H334Z" transform="translate(-5.79 -85.22)"/></svg>