<?xml version="1.0" encoding="iso-8859-1"?>
<!-- Generator: Adobe Illustrator 19.0.0, SVG Export Plug-In . SVG Version: 6.00 Build 0)  -->
<svg version="1.1" id="Capa_1" xmlns="http://www.w3.org/2000/svg" xmlns:xlink="http://www.w3.org/1999/xlink" x="0px" y="0px"
	 viewBox="0 0 512 512" style="enable-background:new 0 0 512 512;" xml:space="preserve">
<g>
	<g>
		<path d="M289.215,289.156c6.559-6.527,10.934-14.646,12.781-23.481l78.38-27.137c2.004-0.694,3.735-2.007,4.944-3.749
			l124.858-179.97c2.757-3.973,2.275-9.351-1.145-12.77L469.988,3.002c-3.904-3.903-10.235-3.903-14.141,0l-47.398,47.399
			C307.052-25.008,165.046-14.994,75.007,75.044c-14.449,14.45-27.122,30.54-37.668,47.828c-2.876,4.714-1.386,10.867,3.329,13.743
			c1.626,0.992,3.422,1.465,5.197,1.465c3.372,0,6.661-1.705,8.545-4.792c9.722-15.935,21.409-30.772,34.739-44.102
			C171.451,6.882,300.85-2.901,394.146,64.703l-24.405,24.405C332.44,63.65,287.385,51.406,241.965,54.552
			c-48.575,3.364-94.31,24.2-128.78,58.67c-9.42,9.421-17.917,19.766-25.258,30.75c-3.068,4.591-1.833,10.8,2.758,13.869
			c1.707,1.141,3.636,1.687,5.546,1.687c3.228,0,6.395-1.56,8.323-4.444c6.614-9.898,14.276-19.225,22.772-27.721
			c60.729-60.73,156.903-70.164,227.994-23.832l-29.089,29.089c-25.405-14.451-55.051-20.777-84.368-17.859
			c-32.494,3.234-63.128,17.753-86.258,40.884c-3.904,3.904-3.904,10.236,0,14.14c1.953,1.953,4.511,2.929,7.07,2.929
			c2.559,0,5.118-0.977,7.07-2.929c37.49-37.49,95.302-46.059,141.717-22.395l-62.372,62.372
			c-9.633,1.414-18.905,5.798-26.303,13.16c-6.559,6.527-10.934,14.646-12.781,23.481l-78.38,27.137
			c-2.004,0.694-3.735,2.007-4.944,3.749L1.822,457.255c-2.757,3.973-2.275,9.35,1.145,12.769l39.046,39.046
			c1.953,1.952,4.511,2.929,7.07,2.929c2.559,0,5.118-0.977,7.07-2.929l47.399-47.399C147.591,494.394,200.958,512,255.959,512
			c4.5,0,9.018-0.118,13.536-0.355c63.214-3.318,122.699-29.817,167.498-74.616c11.32-11.32,21.601-23.707,30.556-36.818
			c3.115-4.56,1.944-10.781-2.617-13.896c-4.559-3.115-10.78-1.943-13.896,2.617c-8.258,12.088-17.74,23.513-28.185,33.957
			c-82.437,82.437-211.668,92.155-305.008,24.489l24.413-24.413c33.463,22.84,73.178,35.041,113.772,35.041
			c4.814,0,9.645-0.171,14.475-0.518c48.394-3.464,93.962-24.288,128.311-58.637c8.044-8.045,15.437-16.786,21.974-25.984
			c3.198-4.501,2.144-10.743-2.358-13.942c-4.5-3.198-10.743-2.143-13.942,2.358c-5.891,8.29-12.557,16.172-19.813,23.429
			c-60.629,60.63-156.942,70.123-227.994,23.832l29.1-29.1c21.354,12.145,45.702,18.566,70.333,18.566
			c4.747,0,9.506-0.238,14.253-0.718c32.405-3.278,62.958-17.789,86.029-40.861c3.904-3.904,3.904-10.235,0-14.14
			s-10.235-3.904-14.14,0c-37.45,37.449-95.315,46.044-141.718,22.397l62.373-62.373
			C272.544,300.901,281.817,296.517,289.215,289.156z M462.917,24.213l26.069,26.069L370.748,220.709L301.6,244.65
			c-2.037-8.157-6.264-15.637-12.388-21.731c-4.43-4.408-9.536-7.74-14.985-10.016L462.917,24.213z M49.083,487.86L23.014,461.79
			l118.239-170.427l69.148-23.94c2.037,8.157,6.264,15.637,12.388,21.731c4.43,4.408,9.536,7.74,14.985,10.016L49.083,487.86z
			 M236.894,274.98c-5.087-5.062-7.89-11.79-7.89-18.943c0-0.136,0.008-0.27,0.01-0.405c0.151-0.806,0.201-1.634,0.147-2.469
			c0.647-6.067,3.333-11.691,7.733-16.07c5.268-5.241,12.187-7.863,19.106-7.863c6.919,0,13.839,2.622,19.106,7.863
			c5.087,5.062,7.89,11.79,7.89,18.943c0,0.136-0.008,0.27-0.01,0.405c-0.151,0.806-0.201,1.634-0.147,2.469
			c-0.647,6.067-3.333,11.691-7.733,16.07C264.571,285.464,247.427,285.463,236.894,274.98z"/>
	</g>
</g>
<g>
	<g>
		<path d="M483.589,350.141c-5.002-2.337-10.953-0.177-13.291,4.826l-0.111,0.24c-2.304,5.019-0.103,10.954,4.916,13.258
			c1.352,0.62,2.77,0.914,4.165,0.914c3.787,0,7.41-2.163,9.094-5.83l0.055-0.118C490.753,358.43,488.591,352.479,483.589,350.141z"
			/>
	</g>
</g>
<g>
	<g>
		<path d="M32.642,152.598c-5.082-2.159-10.952,0.212-13.111,5.295c-0.015,0.036-0.075,0.179-0.089,0.215
			c-2.098,5.106,0.35,10.92,5.456,13.021c1.238,0.509,2.521,0.75,3.782,0.75c3.936,0,7.677-2.345,9.272-6.204
			C40.085,160.601,37.714,154.752,32.642,152.598z"/>
	</g>
</g>
<g>
</g>
<g>
</g>
<g>
</g>
<g>
</g>
<g>
</g>
<g>
</g>
<g>
</g>
<g>
</g>
<g>
</g>
<g>
</g>
<g>
</g>
<g>
</g>
<g>
</g>
<g>
</g>
<g>
</g>
</svg>
